<svg xmlns="http://www.w3.org/2000/svg" viewBox="0 0 15 15"><defs><style>.cls-1{fill:#3358dc;}</style></defs><g id="Layer_2" data-name="Layer 2"><g id="Layer_1-2" data-name="Layer 1"><path class="cls-1" d="M7.5,0A7.5,7.5,0,1,0,15,7.5,7.5,7.5,0,0,0,7.5,0ZM3.84,4.81H11.1a.12.12,0,0,1,.09.11.06.06,0,0,1,0,.06L7.5,7.83a.13.13,0,0,1-.12,0L3.75,5a.1.1,0,0,1,0-.14A.11.11,0,0,1,3.84,4.81ZM3.23,9.75V5.14A.12.12,0,0,1,3.32,5,.11.11,0,0,1,3.4,5L6.2,7.5a.1.1,0,0,1,0,.14h0L3.39,9.78a.12.12,0,0,1-.14,0Zm7.87.44H3.84a.09.09,0,0,1-.09-.09v0a.06.06,0,0,1,0-.06l2.8-2.2a.11.11,0,0,1,.13,0l.7.54a.09.09,0,0,0,.12,0l.7-.54a.09.09,0,0,1,.12,0L11.13,10a.12.12,0,0,1,0,.14Zm.67-.44a.09.09,0,0,1-.08.1h-.08L8.8,7.69a.12.12,0,0,1,0-.14h0l2.8-2.47a.1.1,0,0,1,.14,0,.11.11,0,0,1,0,.08Z"/></g></g></svg>