<svg xmlns="http://www.w3.org/2000/svg" viewBox="0 0 14.85 14.9"><defs><style>.cls-1{fill:#3358dc;}</style></defs><g id="Layer_2" data-name="Layer 2"><g id="Layer_1-2" data-name="Layer 1"><path class="cls-1" d="M7,0h.89l.81.12A7.44,7.44,0,1,1,.11,6.22,7.37,7.37,0,0,1,6.06.16ZM8.14,5.87c0-.28,0-.52,0-.76s.16-.53.53-.55h.64c.15,0,.22,0,.22-.2,0-.39,0-.78,0-1.17,0-.15-.07-.2-.21-.2-.49,0-1,0-1.47,0A1.62,1.62,0,0,0,6.26,4.57c0,.37,0,.74,0,1.11,0,.15,0,.22-.2.21s-.3,0-.45,0-.29.05-.28.27,0,.51,0,.77c0,.71,0,.59.6.6.31,0,.31,0,.31.31v3.84c0,.29,0,.32.33.31H7.83c.29,0,.33,0,.33-.32s0-.86,0-1.29c0-.87,0-1.74,0-2.61,0-.18.06-.24.23-.23s.48,0,.72,0,.26-.07.28-.24c0-.4.06-.8.11-1.19,0-.2-.05-.25-.23-.25Z"/></g></g></svg>