<svg xmlns="http://www.w3.org/2000/svg" viewBox="0 0 15 15"><defs><style>.cls-1{fill:#3358dc;}</style></defs><g id="Layer_2" data-name="Layer 2"><g id="Layer_1-2" data-name="Layer 1"><path class="cls-1" d="M7.5,0A7.5,7.5,0,1,0,15,7.5,7.5,7.5,0,0,0,7.5,0Zm3.56,9.64a3.31,3.31,0,0,1-.78.89,2.09,2.09,0,0,1-.87.46,2.06,2.06,0,0,1-1.15-.1A4.36,4.36,0,0,1,6.5,9.83c-.39-.35-.87-.89-.87-.89A6.79,6.79,0,0,1,4.5,7.4,5.86,5.86,0,0,1,4,6.07a3.12,3.12,0,0,1-.1-1.18A2.66,2.66,0,0,1,4,4.4,3.11,3.11,0,0,1,5.11,3a.44.44,0,0,1,.62.09h0l1,1.32a.4.4,0,0,1,0,.42,2.17,2.17,0,0,1-.6.92,1.84,1.84,0,0,1-.22.17h0c-.09.07-.4.36,0,.89a16.86,16.86,0,0,0,1.67,2h0a.51.51,0,0,0,.7.11l.11-.11h0c.13-.21.58-1,.91-.87a17.71,17.71,0,0,1,1.59,1.24A.44.44,0,0,1,11.06,9.64Z"/></g></g></svg>