<svg xmlns="http://www.w3.org/2000/svg" viewBox="0 0 15 15"><defs><style>.cls-1{fill:#3358dc;}</style></defs><g id="Layer_2" data-name="Layer 2"><g id="Layer_1-2" data-name="Layer 1"><path class="cls-1" d="M7,0H8a2.44,2.44,0,0,0,.26.06,7.31,7.31,0,0,1,6.33,5.07A13.62,13.62,0,0,1,15,7.07V8a2.44,2.44,0,0,0-.06.26,7.41,7.41,0,0,1-5.57,6.48c-.45.12-.91.18-1.37.26H7a2.44,2.44,0,0,0-.26-.06A7.45,7.45,0,0,1,.27,9.46C.15,9,.09,8.49,0,8V7a2.44,2.44,0,0,0,.06-.26A7.28,7.28,0,0,1,5,.47,13.62,13.62,0,0,1,7,0Zm.68,5.68c-.09-1.27-.18-2.45-.27-3.62a.46.46,0,0,0-.5-.47,4.67,4.67,0,0,0-2.28.62c-.34.2-.38.42-.17.76l2,3.17a1.76,1.76,0,0,0,.27.34.48.48,0,0,0,.85-.21A3.27,3.27,0,0,0,7.68,5.68Zm-3.55.6a.48.48,0,0,0-.51.44A11.75,11.75,0,0,0,3.54,8.4c0,.47.3.63.75.5.68-.2,1.35-.43,2-.62a.58.58,0,0,0,.46-.58.54.54,0,0,0-.41-.54L4.44,6.38ZM8.82,8.15A.57.57,0,0,0,8.28,9q.59,1,1.2,1.95a.46.46,0,0,0,.74.15,3.56,3.56,0,0,0,1.17-1.49A.49.49,0,0,0,11,8.86L9,8.19ZM7.61,9.33a.5.5,0,0,0-.28-.66.52.52,0,0,0-.66.14c-.5.57-1,1.14-1.47,1.72a.48.48,0,0,0,.11.77A3.61,3.61,0,0,0,7,11.94c.38,0,.56-.13.56-.51C7.61,10.73,7.61,10,7.61,9.33Zm1-1.8L10.89,7c.43-.1.6-.38.4-.76a10.24,10.24,0,0,0-1-1.45.45.45,0,0,0-.77,0C9.07,5.41,8.62,6,8.2,6.66a.73.73,0,0,0,0,.58C8.26,7.38,8.48,7.45,8.6,7.53Z"/></g></g></svg>